<mxfile host="app.diagrams.net" modified="2024-07-23T10:52:42.797Z" agent="Mozilla/5.0 (Windows NT 10.0; Win64; x64) AppleWebKit/537.36 (KHTML, like Gecko) Chrome/126.0.0.0 Safari/537.36" etag="l1HNZvphlXrNeBCPwGEF" version="24.7.1" type="device">
  <diagram name="Page-1" id="hKwJUcrhqy7oNrMKBg-b">
    <mxGraphModel dx="2333" dy="2338" grid="1" gridSize="10" guides="1" tooltips="1" connect="1" arrows="1" fold="1" page="1" pageScale="1" pageWidth="850" pageHeight="1100" math="0" shadow="0">
      <root>
        <mxCell id="0" />
        <mxCell id="1" parent="0" />
        <mxCell id="1RJ_PcrXkB8cZZnb3w5c-12" style="edgeStyle=orthogonalEdgeStyle;rounded=0;orthogonalLoop=1;jettySize=auto;html=1;exitX=1;exitY=1;exitDx=0;exitDy=0;entryX=0.25;entryY=0;entryDx=0;entryDy=0;" edge="1" parent="1" source="1RJ_PcrXkB8cZZnb3w5c-3" target="1RJ_PcrXkB8cZZnb3w5c-9">
          <mxGeometry relative="1" as="geometry" />
        </mxCell>
        <mxCell id="1RJ_PcrXkB8cZZnb3w5c-3" value="&lt;font style=&quot;font-size: 20px;&quot;&gt;Name&lt;/font&gt;" style="ellipse;whiteSpace=wrap;html=1;align=center;fillColor=#dae8fc;strokeColor=#6c8ebf;" vertex="1" parent="1">
          <mxGeometry x="190" y="210" width="170" height="90" as="geometry" />
        </mxCell>
        <mxCell id="1RJ_PcrXkB8cZZnb3w5c-11" style="edgeStyle=orthogonalEdgeStyle;rounded=0;orthogonalLoop=1;jettySize=auto;html=1;exitX=0.5;exitY=1;exitDx=0;exitDy=0;entryX=0.5;entryY=0;entryDx=0;entryDy=0;" edge="1" parent="1" source="1RJ_PcrXkB8cZZnb3w5c-4" target="1RJ_PcrXkB8cZZnb3w5c-9">
          <mxGeometry relative="1" as="geometry" />
        </mxCell>
        <mxCell id="1RJ_PcrXkB8cZZnb3w5c-4" value="&lt;span style=&quot;font-size: 20px;&quot;&gt;Tenant ID&lt;/span&gt;" style="ellipse;whiteSpace=wrap;html=1;align=center;fontStyle=4;fillColor=#f8cecc;strokeColor=#b85450;" vertex="1" parent="1">
          <mxGeometry x="420" y="70" width="170" height="100" as="geometry" />
        </mxCell>
        <mxCell id="1RJ_PcrXkB8cZZnb3w5c-16" style="edgeStyle=orthogonalEdgeStyle;rounded=0;orthogonalLoop=1;jettySize=auto;html=1;exitX=0;exitY=0.5;exitDx=0;exitDy=0;entryX=0.75;entryY=0;entryDx=0;entryDy=0;" edge="1" parent="1" source="1RJ_PcrXkB8cZZnb3w5c-5" target="1RJ_PcrXkB8cZZnb3w5c-9">
          <mxGeometry relative="1" as="geometry" />
        </mxCell>
        <mxCell id="1RJ_PcrXkB8cZZnb3w5c-5" value="&lt;font style=&quot;font-size: 20px;&quot;&gt;Phone Number&lt;/font&gt;" style="ellipse;shape=doubleEllipse;margin=3;whiteSpace=wrap;html=1;align=center;fillColor=#d5e8d4;strokeColor=#82b366;" vertex="1" parent="1">
          <mxGeometry x="670" y="110" width="160" height="100" as="geometry" />
        </mxCell>
        <mxCell id="1RJ_PcrXkB8cZZnb3w5c-13" style="edgeStyle=orthogonalEdgeStyle;rounded=0;orthogonalLoop=1;jettySize=auto;html=1;exitX=1;exitY=0.5;exitDx=0;exitDy=0;entryX=0;entryY=0.5;entryDx=0;entryDy=0;" edge="1" parent="1" source="1RJ_PcrXkB8cZZnb3w5c-6" target="1RJ_PcrXkB8cZZnb3w5c-9">
          <mxGeometry relative="1" as="geometry" />
        </mxCell>
        <mxCell id="1RJ_PcrXkB8cZZnb3w5c-6" value="&lt;span style=&quot;font-size: 20px;&quot;&gt;Email&lt;/span&gt;" style="ellipse;shape=doubleEllipse;margin=3;whiteSpace=wrap;html=1;align=center;fillColor=#d5e8d4;strokeColor=#82b366;" vertex="1" parent="1">
          <mxGeometry x="110" y="340" width="160" height="100" as="geometry" />
        </mxCell>
        <mxCell id="1RJ_PcrXkB8cZZnb3w5c-14" style="edgeStyle=orthogonalEdgeStyle;rounded=0;orthogonalLoop=1;jettySize=auto;html=1;exitX=1;exitY=0.5;exitDx=0;exitDy=0;entryX=0;entryY=0.75;entryDx=0;entryDy=0;" edge="1" parent="1" source="1RJ_PcrXkB8cZZnb3w5c-7" target="1RJ_PcrXkB8cZZnb3w5c-9">
          <mxGeometry relative="1" as="geometry" />
        </mxCell>
        <mxCell id="1RJ_PcrXkB8cZZnb3w5c-7" value="&lt;span style=&quot;font-size: 20px;&quot;&gt;Type&lt;/span&gt;" style="ellipse;whiteSpace=wrap;html=1;align=center;fillColor=#dae8fc;strokeColor=#6c8ebf;" vertex="1" parent="1">
          <mxGeometry x="190" y="500" width="170" height="90" as="geometry" />
        </mxCell>
        <mxCell id="1RJ_PcrXkB8cZZnb3w5c-15" style="edgeStyle=orthogonalEdgeStyle;rounded=0;orthogonalLoop=1;jettySize=auto;html=1;exitX=1;exitY=0.5;exitDx=0;exitDy=0;entryX=0.5;entryY=1;entryDx=0;entryDy=0;" edge="1" parent="1" source="1RJ_PcrXkB8cZZnb3w5c-8" target="1RJ_PcrXkB8cZZnb3w5c-9">
          <mxGeometry relative="1" as="geometry" />
        </mxCell>
        <mxCell id="1RJ_PcrXkB8cZZnb3w5c-8" value="&lt;span style=&quot;font-size: 20px;&quot;&gt;No of people living&lt;/span&gt;" style="ellipse;whiteSpace=wrap;html=1;align=center;fillColor=#dae8fc;strokeColor=#6c8ebf;" vertex="1" parent="1">
          <mxGeometry x="330" y="608" width="170" height="90" as="geometry" />
        </mxCell>
        <mxCell id="1RJ_PcrXkB8cZZnb3w5c-32" style="edgeStyle=orthogonalEdgeStyle;rounded=0;orthogonalLoop=1;jettySize=auto;html=1;exitX=1;exitY=1;exitDx=0;exitDy=0;entryX=0.5;entryY=0;entryDx=0;entryDy=0;" edge="1" parent="1" source="1RJ_PcrXkB8cZZnb3w5c-9" target="1RJ_PcrXkB8cZZnb3w5c-31">
          <mxGeometry relative="1" as="geometry" />
        </mxCell>
        <mxCell id="1RJ_PcrXkB8cZZnb3w5c-9" value="&lt;span style=&quot;font-size: 20px;&quot;&gt;Tenant&lt;/span&gt;" style="whiteSpace=wrap;html=1;align=center;fillColor=#ffe6cc;strokeColor=#d79b00;" vertex="1" parent="1">
          <mxGeometry x="470" y="370" width="170" height="100" as="geometry" />
        </mxCell>
        <mxCell id="1RJ_PcrXkB8cZZnb3w5c-18" style="edgeStyle=orthogonalEdgeStyle;rounded=0;orthogonalLoop=1;jettySize=auto;html=1;exitX=0.5;exitY=0;exitDx=0;exitDy=0;entryX=0.75;entryY=1;entryDx=0;entryDy=0;" edge="1" parent="1" source="1RJ_PcrXkB8cZZnb3w5c-17" target="1RJ_PcrXkB8cZZnb3w5c-9">
          <mxGeometry relative="1" as="geometry" />
        </mxCell>
        <mxCell id="1RJ_PcrXkB8cZZnb3w5c-17" value="&lt;font style=&quot;font-size: 20px;&quot;&gt;Stays IN&lt;/font&gt;" style="shape=rhombus;perimeter=rhombusPerimeter;whiteSpace=wrap;html=1;align=center;fillColor=#e1d5e7;strokeColor=#9673a6;" vertex="1" parent="1">
          <mxGeometry x="600" y="560" width="190" height="120" as="geometry" />
        </mxCell>
        <mxCell id="1RJ_PcrXkB8cZZnb3w5c-20" style="edgeStyle=orthogonalEdgeStyle;rounded=0;orthogonalLoop=1;jettySize=auto;html=1;exitX=0.5;exitY=0;exitDx=0;exitDy=0;entryX=0.5;entryY=1;entryDx=0;entryDy=0;" edge="1" parent="1" source="1RJ_PcrXkB8cZZnb3w5c-19" target="1RJ_PcrXkB8cZZnb3w5c-17">
          <mxGeometry relative="1" as="geometry" />
        </mxCell>
        <mxCell id="1RJ_PcrXkB8cZZnb3w5c-19" value="&lt;span style=&quot;font-size: 20px;&quot;&gt;House&lt;/span&gt;" style="whiteSpace=wrap;html=1;align=center;fillColor=#ffe6cc;strokeColor=#d79b00;" vertex="1" parent="1">
          <mxGeometry x="610" y="730" width="170" height="100" as="geometry" />
        </mxCell>
        <mxCell id="1RJ_PcrXkB8cZZnb3w5c-22" style="edgeStyle=orthogonalEdgeStyle;rounded=0;orthogonalLoop=1;jettySize=auto;html=1;exitX=1;exitY=0.5;exitDx=0;exitDy=0;entryX=0;entryY=0.5;entryDx=0;entryDy=0;" edge="1" parent="1" source="1RJ_PcrXkB8cZZnb3w5c-21" target="1RJ_PcrXkB8cZZnb3w5c-19">
          <mxGeometry relative="1" as="geometry" />
        </mxCell>
        <mxCell id="1RJ_PcrXkB8cZZnb3w5c-21" value="&lt;span style=&quot;font-size: 20px;&quot;&gt;Facitilies&lt;/span&gt;" style="ellipse;whiteSpace=wrap;html=1;align=center;fillColor=#dae8fc;strokeColor=#6c8ebf;" vertex="1" parent="1">
          <mxGeometry x="330" y="735" width="170" height="90" as="geometry" />
        </mxCell>
        <mxCell id="1RJ_PcrXkB8cZZnb3w5c-24" style="edgeStyle=orthogonalEdgeStyle;rounded=0;orthogonalLoop=1;jettySize=auto;html=1;exitX=1;exitY=0.5;exitDx=0;exitDy=0;entryX=0;entryY=0.75;entryDx=0;entryDy=0;" edge="1" parent="1" source="1RJ_PcrXkB8cZZnb3w5c-23" target="1RJ_PcrXkB8cZZnb3w5c-19">
          <mxGeometry relative="1" as="geometry" />
        </mxCell>
        <mxCell id="1RJ_PcrXkB8cZZnb3w5c-23" value="&lt;span style=&quot;font-size: 20px;&quot;&gt;Address&lt;/span&gt;" style="ellipse;whiteSpace=wrap;html=1;align=center;fillColor=#dae8fc;strokeColor=#6c8ebf;" vertex="1" parent="1">
          <mxGeometry x="360" y="860" width="170" height="90" as="geometry" />
        </mxCell>
        <mxCell id="1RJ_PcrXkB8cZZnb3w5c-26" style="edgeStyle=orthogonalEdgeStyle;rounded=0;orthogonalLoop=1;jettySize=auto;html=1;exitX=0.5;exitY=0;exitDx=0;exitDy=0;entryX=0.5;entryY=1;entryDx=0;entryDy=0;" edge="1" parent="1" source="1RJ_PcrXkB8cZZnb3w5c-25" target="1RJ_PcrXkB8cZZnb3w5c-19">
          <mxGeometry relative="1" as="geometry" />
        </mxCell>
        <mxCell id="1RJ_PcrXkB8cZZnb3w5c-25" value="&lt;span style=&quot;font-size: 20px;&quot;&gt;Type&lt;/span&gt;" style="ellipse;whiteSpace=wrap;html=1;align=center;fillColor=#dae8fc;strokeColor=#6c8ebf;" vertex="1" parent="1">
          <mxGeometry x="610" y="880" width="170" height="90" as="geometry" />
        </mxCell>
        <mxCell id="1RJ_PcrXkB8cZZnb3w5c-28" style="edgeStyle=orthogonalEdgeStyle;rounded=0;orthogonalLoop=1;jettySize=auto;html=1;exitX=0.5;exitY=0;exitDx=0;exitDy=0;entryX=1;entryY=0.5;entryDx=0;entryDy=0;" edge="1" parent="1" source="1RJ_PcrXkB8cZZnb3w5c-27" target="1RJ_PcrXkB8cZZnb3w5c-19">
          <mxGeometry relative="1" as="geometry" />
        </mxCell>
        <mxCell id="1RJ_PcrXkB8cZZnb3w5c-27" value="&lt;span style=&quot;font-size: 20px;&quot;&gt;&lt;u&gt;House ID&lt;/u&gt;&lt;/span&gt;" style="ellipse;whiteSpace=wrap;html=1;align=center;fillColor=#f8cecc;strokeColor=#b85450;" vertex="1" parent="1">
          <mxGeometry x="800" y="840" width="170" height="90" as="geometry" />
        </mxCell>
        <mxCell id="1RJ_PcrXkB8cZZnb3w5c-30" style="edgeStyle=orthogonalEdgeStyle;rounded=0;orthogonalLoop=1;jettySize=auto;html=1;entryX=1;entryY=0.5;entryDx=0;entryDy=0;" edge="1" parent="1" source="1RJ_PcrXkB8cZZnb3w5c-29" target="1RJ_PcrXkB8cZZnb3w5c-9">
          <mxGeometry relative="1" as="geometry" />
        </mxCell>
        <mxCell id="1RJ_PcrXkB8cZZnb3w5c-46" style="edgeStyle=orthogonalEdgeStyle;rounded=0;orthogonalLoop=1;jettySize=auto;html=1;exitX=1;exitY=0.5;exitDx=0;exitDy=0;entryX=0;entryY=0.5;entryDx=0;entryDy=0;" edge="1" parent="1" source="1RJ_PcrXkB8cZZnb3w5c-29" target="1RJ_PcrXkB8cZZnb3w5c-44">
          <mxGeometry relative="1" as="geometry" />
        </mxCell>
        <mxCell id="1RJ_PcrXkB8cZZnb3w5c-29" value="&lt;span style=&quot;font-size: 20px;&quot;&gt;Pays&lt;/span&gt;" style="shape=rhombus;perimeter=rhombusPerimeter;whiteSpace=wrap;html=1;align=center;fillColor=#e1d5e7;strokeColor=#9673a6;" vertex="1" parent="1">
          <mxGeometry x="820" y="360" width="190" height="120" as="geometry" />
        </mxCell>
        <mxCell id="1RJ_PcrXkB8cZZnb3w5c-34" style="edgeStyle=orthogonalEdgeStyle;rounded=0;orthogonalLoop=1;jettySize=auto;html=1;exitX=0.5;exitY=1;exitDx=0;exitDy=0;entryX=0;entryY=0.5;entryDx=0;entryDy=0;" edge="1" parent="1" source="1RJ_PcrXkB8cZZnb3w5c-31" target="1RJ_PcrXkB8cZZnb3w5c-33">
          <mxGeometry relative="1" as="geometry" />
        </mxCell>
        <mxCell id="1RJ_PcrXkB8cZZnb3w5c-31" value="&lt;span style=&quot;font-size: 20px;&quot;&gt;Obeys&lt;/span&gt;" style="shape=rhombus;perimeter=rhombusPerimeter;whiteSpace=wrap;html=1;align=center;fillColor=#e1d5e7;strokeColor=#9673a6;" vertex="1" parent="1">
          <mxGeometry x="820" y="560" width="190" height="120" as="geometry" />
        </mxCell>
        <mxCell id="1RJ_PcrXkB8cZZnb3w5c-33" value="&lt;span style=&quot;font-size: 20px;&quot;&gt;Agreement&lt;/span&gt;" style="whiteSpace=wrap;html=1;align=center;fillColor=#ffe6cc;strokeColor=#d79b00;" vertex="1" parent="1">
          <mxGeometry x="1040" y="730" width="170" height="100" as="geometry" />
        </mxCell>
        <mxCell id="1RJ_PcrXkB8cZZnb3w5c-38" style="edgeStyle=orthogonalEdgeStyle;rounded=0;orthogonalLoop=1;jettySize=auto;html=1;entryX=0.5;entryY=1;entryDx=0;entryDy=0;" edge="1" parent="1" source="1RJ_PcrXkB8cZZnb3w5c-35" target="1RJ_PcrXkB8cZZnb3w5c-33">
          <mxGeometry relative="1" as="geometry" />
        </mxCell>
        <mxCell id="1RJ_PcrXkB8cZZnb3w5c-35" value="&lt;span style=&quot;font-size: 20px;&quot;&gt;Rent Amount&lt;/span&gt;" style="ellipse;whiteSpace=wrap;html=1;align=center;fillColor=#dae8fc;strokeColor=#6c8ebf;" vertex="1" parent="1">
          <mxGeometry x="1040" y="890" width="170" height="90" as="geometry" />
        </mxCell>
        <mxCell id="1RJ_PcrXkB8cZZnb3w5c-39" style="edgeStyle=orthogonalEdgeStyle;rounded=0;orthogonalLoop=1;jettySize=auto;html=1;exitX=0.5;exitY=0;exitDx=0;exitDy=0;entryX=1;entryY=1;entryDx=0;entryDy=0;" edge="1" parent="1" source="1RJ_PcrXkB8cZZnb3w5c-36" target="1RJ_PcrXkB8cZZnb3w5c-33">
          <mxGeometry relative="1" as="geometry" />
        </mxCell>
        <mxCell id="1RJ_PcrXkB8cZZnb3w5c-36" value="&lt;span style=&quot;font-size: 20px;&quot;&gt;Advance Paid&lt;/span&gt;" style="ellipse;whiteSpace=wrap;html=1;align=center;fillColor=#dae8fc;strokeColor=#6c8ebf;" vertex="1" parent="1">
          <mxGeometry x="1230" y="890" width="170" height="90" as="geometry" />
        </mxCell>
        <mxCell id="1RJ_PcrXkB8cZZnb3w5c-40" style="edgeStyle=orthogonalEdgeStyle;rounded=0;orthogonalLoop=1;jettySize=auto;html=1;exitX=0;exitY=0.5;exitDx=0;exitDy=0;entryX=1;entryY=0.5;entryDx=0;entryDy=0;" edge="1" parent="1" source="1RJ_PcrXkB8cZZnb3w5c-37" target="1RJ_PcrXkB8cZZnb3w5c-33">
          <mxGeometry relative="1" as="geometry" />
        </mxCell>
        <mxCell id="1RJ_PcrXkB8cZZnb3w5c-37" value="&lt;span style=&quot;font-size: 20px;&quot;&gt;Ren Due Date&lt;/span&gt;" style="ellipse;whiteSpace=wrap;html=1;align=center;fillColor=#dae8fc;strokeColor=#6c8ebf;" vertex="1" parent="1">
          <mxGeometry x="1340" y="770" width="170" height="90" as="geometry" />
        </mxCell>
        <mxCell id="1RJ_PcrXkB8cZZnb3w5c-41" value="&lt;span style=&quot;font-size: 20px;&quot;&gt;Rules&lt;/span&gt;" style="ellipse;whiteSpace=wrap;html=1;align=center;fillColor=#dae8fc;strokeColor=#6c8ebf;" vertex="1" parent="1">
          <mxGeometry x="1230" y="645" width="170" height="90" as="geometry" />
        </mxCell>
        <mxCell id="1RJ_PcrXkB8cZZnb3w5c-43" style="edgeStyle=orthogonalEdgeStyle;rounded=0;orthogonalLoop=1;jettySize=auto;html=1;exitX=0.5;exitY=1;exitDx=0;exitDy=0;entryX=0.5;entryY=0;entryDx=0;entryDy=0;" edge="1" parent="1" source="1RJ_PcrXkB8cZZnb3w5c-42" target="1RJ_PcrXkB8cZZnb3w5c-33">
          <mxGeometry relative="1" as="geometry" />
        </mxCell>
        <mxCell id="1RJ_PcrXkB8cZZnb3w5c-42" value="&lt;span style=&quot;font-size: 20px;&quot;&gt;&lt;u&gt;Agreement ID&lt;/u&gt;&lt;/span&gt;" style="ellipse;whiteSpace=wrap;html=1;align=center;fillColor=#f8cecc;strokeColor=#b85450;" vertex="1" parent="1">
          <mxGeometry x="1050" y="590" width="170" height="90" as="geometry" />
        </mxCell>
        <mxCell id="1RJ_PcrXkB8cZZnb3w5c-44" value="&lt;span style=&quot;font-size: 20px;&quot;&gt;Owner&lt;/span&gt;" style="whiteSpace=wrap;html=1;align=center;fillColor=#ffe6cc;strokeColor=#d79b00;" vertex="1" parent="1">
          <mxGeometry x="1170" y="130" width="170" height="100" as="geometry" />
        </mxCell>
        <mxCell id="1RJ_PcrXkB8cZZnb3w5c-45" value="&lt;span style=&quot;font-size: 20px;&quot;&gt;Owner ID&lt;/span&gt;" style="ellipse;whiteSpace=wrap;html=1;align=center;fontStyle=4;fillColor=#f8cecc;strokeColor=#b85450;" vertex="1" parent="1">
          <mxGeometry x="940" y="10" width="170" height="100" as="geometry" />
        </mxCell>
        <mxCell id="1RJ_PcrXkB8cZZnb3w5c-47" style="edgeStyle=orthogonalEdgeStyle;rounded=0;orthogonalLoop=1;jettySize=auto;html=1;exitX=1;exitY=0.5;exitDx=0;exitDy=0;entryX=0.351;entryY=-0.013;entryDx=0;entryDy=0;entryPerimeter=0;" edge="1" parent="1" source="1RJ_PcrXkB8cZZnb3w5c-45" target="1RJ_PcrXkB8cZZnb3w5c-44">
          <mxGeometry relative="1" as="geometry" />
        </mxCell>
        <mxCell id="1RJ_PcrXkB8cZZnb3w5c-49" style="edgeStyle=orthogonalEdgeStyle;rounded=0;orthogonalLoop=1;jettySize=auto;html=1;exitX=0.5;exitY=1;exitDx=0;exitDy=0;entryX=0.5;entryY=0;entryDx=0;entryDy=0;" edge="1" parent="1" source="1RJ_PcrXkB8cZZnb3w5c-48" target="1RJ_PcrXkB8cZZnb3w5c-44">
          <mxGeometry relative="1" as="geometry" />
        </mxCell>
        <mxCell id="1RJ_PcrXkB8cZZnb3w5c-48" value="&lt;span style=&quot;font-size: 20px;&quot;&gt;Phone Number&lt;/span&gt;" style="ellipse;shape=doubleEllipse;margin=3;whiteSpace=wrap;html=1;align=center;fillColor=#d5e8d4;strokeColor=#82b366;" vertex="1" parent="1">
          <mxGeometry x="1265" y="-40" width="155" height="100" as="geometry" />
        </mxCell>
        <mxCell id="1RJ_PcrXkB8cZZnb3w5c-52" style="edgeStyle=orthogonalEdgeStyle;rounded=0;orthogonalLoop=1;jettySize=auto;html=1;entryX=1;entryY=0.25;entryDx=0;entryDy=0;" edge="1" parent="1" source="1RJ_PcrXkB8cZZnb3w5c-50" target="1RJ_PcrXkB8cZZnb3w5c-44">
          <mxGeometry relative="1" as="geometry" />
        </mxCell>
        <mxCell id="1RJ_PcrXkB8cZZnb3w5c-50" value="&lt;span style=&quot;font-size: 20px;&quot;&gt;Email&lt;/span&gt;" style="ellipse;shape=doubleEllipse;margin=3;whiteSpace=wrap;html=1;align=center;fillColor=#d5e8d4;strokeColor=#82b366;" vertex="1" parent="1">
          <mxGeometry x="1420" y="80" width="155" height="100" as="geometry" />
        </mxCell>
        <mxCell id="1RJ_PcrXkB8cZZnb3w5c-54" style="edgeStyle=orthogonalEdgeStyle;rounded=0;orthogonalLoop=1;jettySize=auto;html=1;entryX=1;entryY=0.5;entryDx=0;entryDy=0;" edge="1" parent="1" source="1RJ_PcrXkB8cZZnb3w5c-53" target="1RJ_PcrXkB8cZZnb3w5c-44">
          <mxGeometry relative="1" as="geometry" />
        </mxCell>
        <mxCell id="1RJ_PcrXkB8cZZnb3w5c-53" value="&lt;span style=&quot;font-size: 20px;&quot;&gt;Address&lt;/span&gt;" style="ellipse;whiteSpace=wrap;html=1;align=center;fillColor=#dae8fc;strokeColor=#6c8ebf;" vertex="1" parent="1">
          <mxGeometry x="1400" y="230" width="170" height="90" as="geometry" />
        </mxCell>
        <mxCell id="1RJ_PcrXkB8cZZnb3w5c-56" style="edgeStyle=orthogonalEdgeStyle;rounded=0;orthogonalLoop=1;jettySize=auto;html=1;exitX=0.5;exitY=0;exitDx=0;exitDy=0;entryX=0.75;entryY=1;entryDx=0;entryDy=0;" edge="1" parent="1" source="1RJ_PcrXkB8cZZnb3w5c-55" target="1RJ_PcrXkB8cZZnb3w5c-44">
          <mxGeometry relative="1" as="geometry" />
        </mxCell>
        <mxCell id="1RJ_PcrXkB8cZZnb3w5c-55" value="&lt;span style=&quot;font-size: 20px;&quot;&gt;Name&lt;/span&gt;" style="ellipse;whiteSpace=wrap;html=1;align=center;fillColor=#dae8fc;strokeColor=#6c8ebf;" vertex="1" parent="1">
          <mxGeometry x="1230" y="290" width="170" height="90" as="geometry" />
        </mxCell>
      </root>
    </mxGraphModel>
  </diagram>
</mxfile>
